<?xml version="1.0" encoding="UTF-8" standalone="no"?>
<!DOCTYPE svg PUBLIC "-//W3C//DTD SVG 1.1//EN" "http://www.w3.org/Graphics/SVG/1.1/DTD/svg11.dtd">
<svg xmlns="http://www.w3.org/2000/svg" version="1.1" viewBox="0.00 0.00 1280.00 640.00">
<g stroke-width="2.00" fill="none" stroke-linecap="butt">
<path stroke="#6f7d94" vector-effect="non-scaling-stroke" d="
  M 141.14 0.00
  L 141.10 109.63"
/>
<path stroke="#505d75" vector-effect="non-scaling-stroke" d="
  M 141.10 109.63
  L 140.80 112.15
  C 140.77 112.42 140.64 112.66 140.45 112.85
  C 134.93 118.19 134.97 123.51 140.58 128.80
  C 140.83 129.04 140.97 129.36 140.98 129.70
  L 141.06 132.64"
/>
<path stroke="#6f7d94" vector-effect="non-scaling-stroke" d="
  M 141.06 132.64
  C 141.53 147.65 135.87 159.21 124.07 167.31
  C 113.92 174.27 103.88 173.84 91.14 173.75"
/>
<path stroke="#505d75" vector-effect="non-scaling-stroke" d="
  M 91.14 173.75
  C 85.95 168.64 80.69 168.49 75.37 173.30
  C 75.14 173.51 74.84 173.64 74.52 173.65
  L 71.25 173.78"
/>
<path stroke="#6f7d94" vector-effect="non-scaling-stroke" d="
  M 71.25 173.78
  L 0.00 173.77"
/>
<path stroke="#6f7d94" vector-effect="non-scaling-stroke" d="
  M 190.45 0.00
  L 190.54 108.82"
/>
<path stroke="#a1a1a1" vector-effect="non-scaling-stroke" d="
  M 190.54 108.82
  C 188.21 109.15 186.69 109.30 185.97 109.27
  C 174.62 108.94 163.38 108.87 152.25 109.05
  C 152.01 109.05 151.82 108.86 151.82 108.63
  C 151.41 87.70 151.78 64.11 151.69 42.39
  C 151.62 27.14 151.59 17.12 151.60 12.33
  C 151.61 8.68 150.78 5.46 149.10 2.67
  C 149.02 2.54 148.82 2.60 148.82 2.75
  C 148.51 36.19 148.83 55.77 148.61 99.70
  C 148.60 101.75 148.80 104.67 149.21 108.46
  C 149.24 108.73 149.04 108.97 148.77 108.99
  L 141.10 109.63"
/>
<path stroke="#6f7d94" vector-effect="non-scaling-stroke" d="
  M 1280.00 468.46
  L 1205.73 468.47"
/>
<path stroke="#505d75" vector-effect="non-scaling-stroke" d="
  M 1205.73 468.47
  C 1199.64 462.60 1193.88 462.60 1188.45 468.47"
/>
<path stroke="#6f7d94" vector-effect="non-scaling-stroke" d="
  M 1188.45 468.47
  C 1179.37 468.41 1173.55 468.47 1171.00 468.66
  C 1122.93 472.22 1087.74 512.07 1089.51 560.14"
/>
<path stroke="#505d75" vector-effect="non-scaling-stroke" d="
  M 1089.51 560.14
  L 1089.28 562.95
  C 1089.25 563.28 1089.10 563.58 1088.86 563.79
  C 1087.07 565.34 1086.01 566.63 1085.68 567.68
  C 1084.11 572.57 1085.36 576.99 1089.43 580.96"
/>
<path stroke="#6f7d94" vector-effect="non-scaling-stroke" d="
  M 1089.43 580.96
  L 1089.58 640.00"
/>
<path stroke="#6f7d94" vector-effect="non-scaling-stroke" d="
  M 0.00 223.99
  L 72.58 223.99"
/>
<path stroke="#505d75" vector-effect="non-scaling-stroke" d="
  M 72.58 223.99
  C 72.98 223.94 73.80 224.12 75.04 224.55
  C 75.36 224.65 75.63 224.85 75.83 225.12
  C 77.09 226.79 78.82 227.60 81.01 227.55
  C 85.54 227.44 88.59 227.65 91.11 224.13"
/>
<path stroke="#6f7d94" vector-effect="non-scaling-stroke" d="
  M 91.11 224.13
  C 98.72 224.02 106.96 224.25 113.93 223.35
  C 136.14 220.48 154.48 210.76 168.95 194.20
  C 183.85 177.17 191.04 156.62 190.51 132.55"
/>
<path stroke="#505d75" vector-effect="non-scaling-stroke" d="
  M 190.51 132.55
  L 190.79 129.46
  C 190.82 129.15 190.98 128.86 191.22 128.66
  C 196.38 124.41 196.38 118.07 191.66 113.33
  C 191.32 112.99 191.10 112.56 191.03 112.09
  L 190.54 108.82"
/>
<path stroke="#8e9cb3" vector-effect="non-scaling-stroke" d="
  M 605.01 290.65
  C 599.26 291.94 593.29 292.76 587.10 293.11
  C 586.78 293.13 586.52 292.86 586.55 292.54
  L 587.67 280.11
  C 587.69 279.84 587.37 279.70 587.19 279.90
  C 572.19 296.78 548.42 309.96 525.24 303.20
  C 517.17 300.84 510.33 296.70 504.73 290.79
  C 495.95 281.52 491.58 268.26 493.53 255.60
  C 496.00 239.55 506.22 226.87 521.38 220.90
  C 526.19 219.00 532.23 217.91 539.51 217.62
  C 539.82 217.61 540.01 217.29 539.88 217.02
  C 538.71 214.58 537.22 211.50 536.55 208.74
  C 533.72 197.11 535.81 187.03 542.81 178.50
  C 552.79 166.35 569.27 165.04 582.59 171.89
  C 584.76 173.00 586.63 174.36 588.20 175.97
  C 588.42 176.19 588.79 176.10 588.89 175.81
  C 594.49 158.90 601.56 144.90 616.49 134.83
  C 630.56 125.34 645.63 121.71 661.71 123.96
  C 673.91 125.66 685.72 130.85 694.75 138.84
  C 710.28 152.57 717.87 170.12 717.54 191.49
  C 717.54 191.65 717.42 191.80 717.25 191.84
  C 688.16 198.34 662.78 212.14 638.79 231.07
  C 631.34 236.95 622.81 244.41 613.21 253.44
  C 612.84 253.79 612.26 253.80 611.87 253.46
  L 603.64 246.17
  C 603.45 246.00 603.14 246.10 603.08 246.35
  L 594.59 285.22
  C 594.55 285.39 594.71 285.54 594.88 285.50
  L 634.83 276.30
  C 635.14 276.23 635.24 275.84 635.00 275.63
  L 626.81 268.38
  C 626.62 268.21 626.62 267.91 626.81 267.74
  C 635.30 259.92 642.71 253.45 649.06 248.34
  C 656.55 242.30 665.19 236.32 674.99 230.41
  C 684.72 224.53 693.57 220.16 701.54 217.29
  C 715.27 212.36 729.00 209.11 743.00 209.32
  C 751.13 209.44 758.95 211.51 766.46 215.54
  C 785.15 225.57 794.00 246.10 790.46 266.72
  C 787.48 284.05 774.65 297.46 757.77 303.00
  C 753.90 304.27 748.50 304.89 741.59 304.88
  C 730.49 304.85 724.84 304.83 724.65 304.82
  C 724.25 304.80 723.87 304.97 723.63 305.28
  C 717.06 313.64 709.03 319.28 699.98 324.12
  C 699.80 324.22 699.87 324.49 700.08 324.49
  C 718.81 324.44 730.79 324.45 736.01 324.50
  C 747.33 324.62 755.61 324.07 760.84 322.84
  C 790.35 315.92 812.41 288.43 811.92 257.91
  C 811.79 249.64 810.54 242.10 808.18 235.29
  C 801.47 215.92 788.53 202.19 769.37 194.12
  C 759.52 189.97 749.41 188.30 739.04 189.12
  C 738.79 189.14 738.58 188.94 738.57 188.69
  C 738.35 179.88 737.24 170.61 734.37 161.95
  C 721.84 124.10 684.76 98.52 644.56 102.86
  C 618.97 105.63 598.34 117.82 582.67 139.44
  C 582.22 140.05 580.58 142.68 577.74 147.32
  C 577.58 147.57 577.29 147.71 576.99 147.66
  C 562.71 145.31 550.11 147.63 539.20 154.60
  C 523.56 164.59 514.15 182.12 514.82 200.54
  C 514.85 201.22 514.44 201.84 513.80 202.08
  C 492.46 210.25 476.54 229.69 473.22 252.34
  C 470.02 274.21 478.60 296.08 495.69 310.05
  C 516.79 327.31 544.89 328.51 569.28 317.39
  C 582.79 311.23 594.44 301.38 605.09 290.80
  C 605.15 290.74 605.10 290.63 605.01 290.65"
/>
<path stroke="#8e9cb3" vector-effect="non-scaling-stroke" d="
  M 636.28 167.32
  C 636.28 167.52 636.28 167.50 636.18 167.60
  C 632.11 171.77 627.09 176.70 621.13 182.39
  C 617.61 185.74 620.79 188.32 623.31 190.50
  C 624.95 191.92 626.32 191.72 627.77 190.25
  C 632.45 185.51 638.62 179.35 646.27 171.77
  C 647.28 170.77 649.02 168.71 649.03 167.33
  C 649.03 165.96 647.29 163.89 646.28 162.89
  C 638.65 155.29 632.50 149.11 627.83 144.36
  C 626.39 142.89 625.02 142.68 623.37 144.10
  C 620.85 146.27 617.66 148.84 621.17 152.20
  C 627.12 157.91 632.12 162.85 636.18 167.03
  C 636.28 167.13 636.29 167.12 636.28 167.32"
/>
<path stroke="#8e9cb3" vector-effect="non-scaling-stroke" d="
  M 701.32 186.78
  C 701.32 183.86 698.96 181.50 696.04 181.50
  C 693.12 181.50 690.76 183.86 690.76 186.78
  C 690.76 189.70 693.12 192.06 696.04 192.06
  C 698.96 192.06 701.32 189.70 701.32 186.78"
/>
<path stroke="#8e9cb3" vector-effect="non-scaling-stroke" d="
  M 665.2056 186.3620
  C 665.17 183.78 663.05 181.71 660.4688 181.7396
  L 653.7893 181.8212
  C 651.20 181.85 649.14 183.97 649.1668 186.5580
  L 649.1744 187.1780
  C 649.21 189.76 651.33 191.83 653.9112 191.8004
  L 660.5907 191.7188
  C 663.18 191.69 665.24 189.57 665.2132 186.9820
  L 665.2056 186.3620"
/>
<path stroke="#8e9cb3" vector-effect="non-scaling-stroke" d="
  M 683.5971 186.3678
  C 683.58 183.85 681.52 181.82 679.0054 181.8398
  L 676.0455 181.8605
  C 673.53 181.88 671.50 183.93 671.5174 186.4522
  L 671.5229 187.2322
  C 671.54 189.75 673.60 191.78 676.1146 191.7602
  L 679.0745 191.7395
  C 681.59 191.72 683.62 189.67 683.6026 187.1478
  L 683.5971 186.3678"
/>
<path stroke="#8e9cb3" vector-effect="non-scaling-stroke" d="
  M 643.67 216.79
  L 613.07 196.85
  C 612.80 196.68 612.44 196.87 612.44 197.19
  L 612.44 206.82
  C 612.44 207.15 612.19 207.43 611.86 207.46
  C 597.55 208.67 585.49 213.27 575.68 221.24
  C 555.61 237.54 548.65 266.57 561.49 289.93
  C 561.69 290.28 562.15 290.38 562.47 290.14
  L 577.12 279.22
  C 577.44 278.98 577.57 278.56 577.43 278.18
  C 568.00 252.55 585.48 229.19 611.64 227.31
  C 612.03 227.28 612.36 227.59 612.36 227.98
  L 612.36 238.93
  C 612.36 239.24 612.71 239.42 612.96 239.24
  L 643.68 217.16
  C 643.81 217.07 643.80 216.88 643.67 216.79"
/>
<path stroke="#8e9cb3" vector-effect="non-scaling-stroke" d="
  M 672.08 334.56
  L 672.08 323.83
  C 672.08 323.35 672.45 322.95 672.93 322.91
  C 715.94 319.70 744.31 275.03 721.56 235.89
  C 718.65 230.87 715.20 226.63 711.22 223.17
  C 710.88 222.88 710.42 222.80 710.01 222.97
  L 690.06 230.92
  C 689.65 231.08 689.61 231.66 690.00 231.87
  C 714.78 245.53 716.82 279.24 693.55 295.57
  C 687.36 299.92 680.38 302.36 672.59 302.90
  C 672.34 302.92 672.12 302.72 672.12 302.47
  L 672.12 291.07
  C 672.12 290.86 671.88 290.74 671.71 290.87
  L 641.52 313.36
  C 641.16 313.63 641.17 314.17 641.54 314.42
  L 671.70 334.76
  C 671.86 334.87 672.08 334.76 672.08 334.56"
/>
<path stroke="#8e9cb3" vector-effect="non-scaling-stroke" d="
  M 573.48 324.45
  C 588.71 325.40 603.28 322.95 617.18 317.10
  C 638.52 308.11 656.27 293.66 671.90 277.03
  C 672.12 276.80 672.48 276.78 672.73 276.99
  L 680.91 284.23
  C 681.05 284.36 681.27 284.28 681.31 284.10
  L 688.86 243.90
  C 688.90 243.71 688.72 243.55 688.53 243.60
  L 648.95 255.45
  C 648.82 255.49 648.79 255.66 648.89 255.75
  L 657.17 263.09
  C 657.51 263.39 657.53 263.91 657.21 264.24
  C 642.50 279.26 626.59 292.38 607.45 300.35
  C 606.95 300.55 606.50 300.85 606.12 301.22
  C 596.41 310.47 585.41 318.95 573.43 324.18
  C 573.29 324.24 573.33 324.44 573.48 324.45"
/>
<path stroke="#8e9cb3" vector-effect="non-scaling-stroke" d="
  M 647.81 411.11
  C 647.49 410.41 647.33 409.63 647.33 408.76
  C 647.34 402.35 647.33 385.61 647.29 358.54
  C 647.28 350.88 639.63 350.85 634.02 352.05
  C 630.43 352.83 629.71 355.92 629.70 359.25
  C 629.67 375.12 629.67 391.62 629.72 408.75
  C 629.74 417.18 630.53 426.87 641.14 428.34
  C 644.41 428.79 654.49 430.12 655.86 426.84
  C 657.35 423.27 658.17 415.46 653.93 412.41
  C 653.72 412.25 653.45 412.17 653.18 412.17
  L 649.47 412.17
  C 648.76 412.17 648.11 411.76 647.81 411.11"
/>
<path stroke="#8e9cb3" vector-effect="non-scaling-stroke" d="
  M 816.63 380.91
  C 816.48 380.83 816.31 380.61 816.14 380.26
  C 815.99 379.96 815.67 379.64 815.16 379.30
  C 806.20 373.33 795.33 377.58 788.75 385.10
  C 783.41 391.21 781.24 398.24 782.25 406.19
  C 783.53 416.27 791.54 426.19 801.84 428.30
  C 807.89 429.54 813.02 428.24 817.22 424.40
  C 817.38 424.25 817.65 424.33 817.70 424.54
  C 819.04 429.77 826.63 429.38 830.60 428.32
  C 833.51 427.55 834.80 425.26 834.80 422.50
  C 834.85 404.41 834.85 384.28 834.81 362.13
  C 834.81 359.61 834.98 353.15 831.57 352.41
  C 828.89 351.82 825.96 351.67 822.79 351.95
  C 819.40 352.24 817.60 354.01 817.38 357.25
  C 817.24 359.30 817.21 367.05 817.29 380.49
  C 817.29 380.83 816.94 381.06 816.63 380.91"
/>
<path stroke="#8e9cb3" vector-effect="non-scaling-stroke" d="
  M 529.36 411.04
  C 537.56 407.52 544.96 402.24 549.73 394.53
  C 555.04 385.96 553.99 374.69 548.47 366.58
  C 544.55 360.81 539.87 357.17 534.43 355.67
  C 522.91 352.49 511.87 355.61 504.57 365.40
  C 500.60 370.73 498.85 377.00 499.32 384.23
  C 499.42 385.69 499.83 386.93 500.56 387.96
  C 500.74 388.22 500.97 388.43 501.25 388.59
  C 504.28 390.35 507.82 390.86 511.85 390.11
  C 516.27 389.29 516.95 386.82 516.96 382.51
  C 516.96 379.32 518.15 376.59 520.54 374.33
  C 521.76 373.16 523.26 372.52 525.05 372.40
  C 532.49 371.90 537.40 377.99 534.36 385.12
  C 532.90 388.55 528.30 392.34 524.41 394.78
  C 513.89 401.39 507.92 404.04 502.47 410.93
  C 498.87 415.47 497.49 422.93 502.50 427.09
  C 504.41 428.68 506.65 429.44 509.23 429.37
  C 511.62 429.30 524.29 429.28 547.25 429.31
  C 550.19 429.32 554.60 428.57 555.50 425.30
  C 556.42 421.98 557.09 413.74 552.88 412.20
  C 551.60 411.73 549.97 411.49 547.99 411.48
  C 536.64 411.42 530.46 411.41 529.45 411.45
  C 529.21 411.46 529.14 411.13 529.36 411.04"
/>
<path stroke="#8e9cb3" vector-effect="non-scaling-stroke" d="
  M 457.9900 354.8000
  C 437.98 354.80 421.75 371.68 421.7500 392.5000
  C 421.75 413.32 437.98 430.20 457.9900 430.2000
  C 478.00 430.20 494.23 413.32 494.2300 392.5000
  C 494.23 371.68 478.00 354.80 457.9900 354.8000"
/>
<path stroke="#8e9cb3" vector-effect="non-scaling-stroke" d="
  M 560.29 392.38
  C 560.27 403.63 564.63 414.32 573.84 421.13
  C 588.27 431.82 602.97 432.81 617.94 424.11
  C 621.56 422.01 624.13 419.58 622.52 415.26
  C 621.31 412.01 619.19 409.29 616.16 407.11
  C 615.88 406.92 615.57 406.80 615.24 406.75
  C 613.88 406.58 612.81 406.70 612.04 407.11
  C 608.63 408.93 605.91 410.96 602.59 411.67
  C 598.96 412.44 595.42 412.27 591.97 411.16
  C 583.11 408.31 578.01 401.47 578.02 392.41
  C 578.04 383.36 583.17 376.53 592.03 373.71
  C 595.49 372.61 599.03 372.45 602.65 373.23
  C 605.97 373.95 608.68 375.99 612.09 377.82
  C 612.86 378.24 613.92 378.36 615.29 378.19
  C 615.61 378.15 615.93 378.03 616.21 377.84
  C 619.25 375.67 621.38 372.96 622.59 369.71
  C 624.22 365.39 621.65 362.95 618.04 360.84
  C 603.10 352.10 588.40 353.04 573.93 363.68
  C 564.70 370.47 560.31 381.14 560.29 392.38"
/>
<path stroke="#8e9cb3" vector-effect="non-scaling-stroke" d="
  M 715.74 402.46
  C 715.74 387.31 703.46 375.03 688.31 375.03
  C 673.16 375.03 660.88 387.31 660.88 402.46
  C 660.88 417.61 673.16 429.89 688.31 429.89
  C 703.46 429.89 715.74 417.61 715.74 402.46"
/>
<path stroke="#8e9cb3" vector-effect="non-scaling-stroke" d="
  M 757.55 423.53
  C 758.04 425.82 758.78 427.20 759.77 427.69
  C 763.85 429.68 774.77 430.44 774.83 422.75
  C 774.88 415.55 774.89 403.32 774.86 386.07
  C 774.85 382.40 775.18 377.80 770.52 376.79
  C 766.39 375.89 762.78 376.14 759.68 377.55
  C 759.37 377.69 759.09 377.90 758.89 378.18
  C 757.80 379.62 757.28 381.48 757.31 383.77
  C 757.36 386.37 757.33 392.69 757.24 402.72
  C 757.20 408.04 753.21 411.44 747.82 411.13
  C 740.20 410.69 739.76 404.58 739.84 397.68
  C 739.91 392.33 739.89 387.43 739.79 382.99
  C 739.62 375.98 732.77 375.76 727.52 376.57
  C 723.03 377.26 722.20 380.17 722.20 384.45
  C 722.20 390.46 722.21 396.48 722.22 402.50
  C 722.23 409.71 724.52 416.00 729.09 421.37
  C 735.46 428.85 747.18 431.80 755.14 425.08
  C 755.90 424.44 756.43 423.62 756.88 423.28
  C 757.13 423.09 757.48 423.23 757.55 423.53"
/>
<path stroke="#1375a8" vector-effect="non-scaling-stroke" d="
  M 568.05 491.38
  C 568.03 502.61 572.39 513.30 581.59 520.12
  C 596.02 530.80 610.71 531.79 625.67 523.10
  C 629.29 521.00 631.86 518.57 630.25 514.25
  C 629.05 511.00 626.93 508.29 623.90 506.11
  C 623.62 505.92 623.31 505.79 622.98 505.75
  C 621.62 505.57 620.55 505.69 619.78 506.11
  C 616.37 507.92 613.65 509.95 610.33 510.66
  C 606.71 511.43 603.17 511.26 599.72 510.15
  C 590.87 507.30 585.76 500.46 585.78 491.41
  C 585.80 482.36 590.92 475.53 599.78 472.72
  C 603.24 471.61 606.78 471.46 610.40 472.24
  C 613.72 472.96 616.43 475.00 619.83 476.83
  C 620.60 477.25 621.67 477.37 623.03 477.20
  C 623.36 477.16 623.67 477.03 623.95 476.84
  C 626.99 474.68 629.12 471.97 630.34 468.72
  C 631.96 464.41 629.40 461.97 625.79 459.86
  C 610.86 451.11 596.16 452.05 581.70 462.68
  C 572.47 469.47 568.07 480.14 568.05 491.38"
/>
<path stroke="#1375a8" vector-effect="non-scaling-stroke" d="
  M 655.19 512.80
  C 655.22 483.61 655.21 466.45 655.15 461.31
  C 655.08 454.38 647.98 454.38 642.87 455.09
  C 637.75 455.81 637.45 459.82 637.46 464.00
  C 637.46 465.47 637.46 483.72 637.47 518.75
  C 637.47 526.72 640.21 527.96 647.75 528.04
  C 648.58 528.05 660.41 528.02 683.24 527.97
  C 689.66 527.96 690.01 523.42 689.61 518.41
  C 689.34 515.06 687.45 513.37 683.92 513.32
  C 674.93 513.20 665.50 513.18 655.65 513.25
  C 655.40 513.26 655.19 513.05 655.19 512.80"
/>
<path stroke="#1375a8" vector-effect="non-scaling-stroke" d="
  M 713.94 461.18
  C 713.94 457.69 711.11 454.86 707.62 454.86
  L 702.56 454.86
  C 699.07 454.86 696.24 457.69 696.24 461.18
  L 696.24 521.56
  C 696.24 525.05 699.07 527.88 702.56 527.88
  L 707.62 527.88
  C 711.11 527.88 713.94 525.05 713.94 521.56
  L 713.94 461.18"
/>
<path stroke="#a1a1a1" vector-effect="non-scaling-stroke" d="
  M 190.51 132.55
  C 177.41 132.11 164.32 132.16 151.23 132.70"
/>
<path stroke="#a1a1a1" vector-effect="non-scaling-stroke" d="
  M 151.23 132.70
  L 141.06 132.64"
/>
<path stroke="#a1a1a1" vector-effect="non-scaling-stroke" d="
  M 189.1588 114.7956
  C 189.15 114.22 188.68 113.75 188.0997 113.7548
  L 159.4008 114.0053
  C 158.82 114.01 158.35 114.48 158.3600 115.0644
  L 158.3612 115.2044
  C 158.37 115.78 158.84 116.25 159.4203 116.2452
  L 188.1192 115.9947
  C 188.70 115.99 189.17 115.52 189.1600 114.9356
  L 189.1588 114.7956"
/>
<path stroke="#a1a1a1" vector-effect="non-scaling-stroke" d="
  M 157.0305 115.0415
  C 157.04 114.47 156.58 114.01 156.0095 114.0025
  L 153.1497 113.9776
  C 152.58 113.97 152.12 114.43 152.1107 114.9985
  L 152.1095 115.1385
  C 152.10 115.71 152.56 116.17 153.1305 116.1775
  L 155.9903 116.2024
  C 156.56 116.21 157.02 115.75 157.0293 115.1815
  L 157.0305 115.0415"
/>
<path stroke="#a1a1a1" vector-effect="non-scaling-stroke" d="
  M 91.11 224.13
  C 92.14 222.32 92.63 220.03 92.58 217.25
  C 92.45 209.96 92.45 197.96 92.59 181.23"
/>
<path stroke="#c0c0c0" vector-effect="non-scaling-stroke" d="
  M 92.59 181.23
  C 107.14 181.21 120.35 181.56 131.07 174.58
  C 145.68 165.06 152.40 151.10 151.23 132.70"
/>
<path stroke="#a1a1a1" vector-effect="non-scaling-stroke" d="
  M 92.59 181.23
  C 92.85 178.09 92.00 176.34 91.14 173.75"
/>
<path stroke="#a1a1a1" vector-effect="non-scaling-stroke" d="
  M 72.58 223.99
  L 72.42 183.97
  C 72.42 183.66 72.38 183.35 72.29 183.04
  C 71.81 181.29 71.58 180.11 71.60 179.52
  C 71.70 176.92 71.58 175.01 71.25 173.78"
/>
<path stroke="#a1a1a1" vector-effect="non-scaling-stroke" d="
  M 89.8145 186.2190
  C 89.82 185.68 89.39 185.25 88.8530 185.2405
  L 88.7530 185.2397
  C 88.22 185.23 87.78 185.67 87.7746 186.2012
  L 87.7455 189.5410
  C 87.74 190.08 88.17 190.51 88.7070 190.5195
  L 88.8070 190.5203
  C 89.34 190.53 89.78 190.09 89.7854 189.5588
  L 89.8145 186.2190"
/>
<path stroke="#a1a1a1" vector-effect="non-scaling-stroke" d="
  M 89.8542 192.4243
  C 89.85 191.81 89.35 191.32 88.7384 191.3201
  L 88.6984 191.3203
  C 88.09 191.32 87.59 191.82 87.5943 192.4361
  L 87.7458 221.3757
  C 87.75 221.99 88.25 222.48 88.8616 222.4799
  L 88.9016 222.4797
  C 89.51 222.48 90.01 221.98 90.0057 221.3639
  L 89.8542 192.4243"
/>
<path stroke="#8e9cb3" vector-effect="non-scaling-stroke" d="
  M 816.86 402.74
  C 816.86 398.00 813.01 394.15 808.27 394.15
  C 803.53 394.15 799.68 398.00 799.68 402.74
  C 799.68 407.48 803.53 411.33 808.27 411.33
  C 813.01 411.33 816.86 407.48 816.86 402.74"
/>
<path stroke="#8e9cb3" vector-effect="non-scaling-stroke" d="
  M 457.9553 372.6100
  C 447.72 372.63 439.43 381.54 439.4500 392.5224
  C 439.47 403.50 447.79 412.39 458.0247 412.3700
  C 468.26 412.35 476.55 403.44 476.5300 392.4576
  C 476.51 381.48 468.19 372.59 457.9553 372.6100"
/>
<path stroke="#8e9cb3" vector-effect="non-scaling-stroke" d="
  M 697.9591 400.3241
  C 696.82 395.15 691.57 391.91 686.2307 393.0837
  C 680.89 394.26 677.48 399.40 678.6209 404.5759
  C 679.76 409.75 685.01 412.99 690.3493 411.8163
  C 695.69 410.64 699.10 405.50 697.9591 400.3241"
/>
<path stroke="#a1a1a1" vector-effect="non-scaling-stroke" d="
  M 1205.73 468.47
  L 1206.53 471.64
  C 1206.72 472.38 1206.82 473.15 1206.83 473.91
  C 1206.97 487.93 1206.96 498.88 1206.79 506.76
  C 1206.74 509.23 1207.14 511.13 1208.01 512.46
  C 1208.15 512.67 1208.19 512.93 1208.12 513.18
  C 1208.04 513.49 1207.85 513.73 1207.56 513.88
  C 1207.21 514.07 1206.93 514.40 1206.72 514.87
  C 1206.19 516.06 1205.72 517.34 1205.31 518.71"
/>
<path stroke="#505d75" vector-effect="non-scaling-stroke" d="
  M 1205.31 518.71
  C 1199.99 524.05 1194.25 524.02 1188.09 518.63"
/>
<path stroke="#a1a1a1" vector-effect="non-scaling-stroke" d="
  M 1188.09 518.63
  C 1187.43 503.93 1187.22 489.01 1187.46 473.87
  C 1187.47 472.92 1187.58 472.01 1187.78 471.14
  C 1187.99 470.22 1188.22 469.33 1188.45 468.47"
/>
<path stroke="#a1a1a1" vector-effect="non-scaling-stroke" d="
  M 1192.1238 471.0445
  C 1192.12 470.46 1191.64 469.99 1191.0583 469.9901
  L 1191.0183 469.9903
  C 1190.43 469.99 1189.96 470.47 1189.9638 471.0559
  L 1190.1162 500.1555
  C 1190.12 500.74 1190.60 501.21 1191.1817 501.2099
  L 1191.2217 501.2097
  C 1191.81 501.21 1192.28 500.73 1192.2762 500.1441
  L 1192.1238 471.0445"
/>
<path stroke="#a1a1a1" vector-effect="non-scaling-stroke" d="
  M 1192.2721 503.2045
  C 1192.27 502.65 1191.82 502.21 1191.2669 502.2097
  L 1191.1469 502.2103
  C 1190.59 502.21 1190.15 502.66 1190.1521 503.2156
  L 1190.1679 506.2355
  C 1190.17 506.79 1190.62 507.23 1191.1731 507.2303
  L 1191.2931 507.2297
  C 1191.85 507.23 1192.29 506.78 1192.2879 506.2244
  L 1192.2721 503.2045"
/>
<path stroke="#6f7d94" vector-effect="non-scaling-stroke" d="
  M 1188.09 518.63
  C 1184.52 518.67 1180.92 518.75 1177.28 518.87
  C 1169.11 519.14 1162.41 520.61 1156.13 524.88
  C 1143.92 533.19 1138.19 544.92 1138.95 560.09"
/>
<path stroke="#a1a1a1" vector-effect="non-scaling-stroke" d="
  M 1138.95 560.09
  L 1089.51 560.14"
/>
<path stroke="#6f7d94" vector-effect="non-scaling-stroke" d="
  M 1280.00 518.72
  L 1205.31 518.71"
/>
<path stroke="#6f7d94" vector-effect="non-scaling-stroke" d="
  M 1138.86 640.00
  L 1138.91 583.01"
/>
<path stroke="#505d75" vector-effect="non-scaling-stroke" d="
  M 1138.91 583.01
  L 1139.24 580.38
  C 1139.28 580.06 1139.42 579.77 1139.65 579.56
  C 1144.72 574.70 1145.13 568.38 1139.41 563.95
  C 1139.18 563.77 1139.05 563.50 1139.04 563.22
  L 1138.95 560.09"
/>
<path stroke="#a1a1a1" vector-effect="non-scaling-stroke" d="
  M 1138.91 583.01
  C 1134.06 583.32 1130.80 583.37 1129.11 583.14
  C 1125.93 582.71 1122.74 582.33 1119.54 582.01
  C 1116.94 581.74 1113.74 581.65 1109.94 581.74
  C 1103.16 581.89 1096.32 581.63 1089.43 580.96"
/>
<path stroke="#a1a1a1" vector-effect="non-scaling-stroke" d="
  M 1121.7188 577.4351
  C 1121.71 576.91 1121.29 576.49 1120.7605 576.4934
  L 1091.7417 576.7467
  C 1091.22 576.75 1090.80 577.18 1090.8000 577.7049
  L 1090.8012 577.8449
  C 1090.81 578.37 1091.23 578.79 1091.7595 578.7866
  L 1120.7783 578.5333
  C 1121.30 578.53 1121.72 578.10 1121.7200 577.5751
  L 1121.7188 577.4351"
/>
<path stroke="#a1a1a1" vector-effect="non-scaling-stroke" d="
  M 1127.8692 577.4281
  C 1127.86 576.94 1127.46 576.54 1126.9684 576.5491
  L 1123.5286 576.5911
  C 1123.04 576.60 1122.64 577.00 1122.6496 577.4919
  L 1122.6508 577.5919
  C 1122.66 578.08 1123.06 578.48 1123.5516 578.4709
  L 1126.9914 578.4289
  C 1127.48 578.42 1127.88 578.02 1127.8704 577.5281
  L 1127.8692 577.4281"
/>
</g>
<path fill="#1e3968" d="
  M 141.14 0.00
  L 141.10 109.63
  L 140.80 112.15
  C 140.77 112.42 140.64 112.66 140.45 112.85
  C 134.93 118.19 134.97 123.51 140.58 128.80
  C 140.83 129.04 140.97 129.36 140.98 129.70
  L 141.06 132.64
  C 141.53 147.65 135.87 159.21 124.07 167.31
  C 113.92 174.27 103.88 173.84 91.14 173.75
  C 85.95 168.64 80.69 168.49 75.37 173.30
  C 75.14 173.51 74.84 173.64 74.52 173.65
  L 71.25 173.78
  L 0.00 173.77
  L 0.00 0.00
  L 141.14 0.00
  Z"
/>
<path fill="#c0c0c0" d="
  M 190.45 0.00
  L 190.54 108.82
  C 188.21 109.15 186.69 109.30 185.97 109.27
  C 174.62 108.94 163.38 108.87 152.25 109.05
  C 152.01 109.05 151.82 108.86 151.82 108.63
  C 151.41 87.70 151.78 64.11 151.69 42.39
  C 151.62 27.14 151.59 17.12 151.60 12.33
  C 151.61 8.68 150.78 5.46 149.10 2.67
  C 149.02 2.54 148.82 2.60 148.82 2.75
  C 148.51 36.19 148.83 55.77 148.61 99.70
  C 148.60 101.75 148.80 104.67 149.21 108.46
  C 149.24 108.73 149.04 108.97 148.77 108.99
  L 141.10 109.63
  L 141.14 0.00
  L 190.45 0.00
  Z"
/>
<path fill="#1e3968" d="
  M 1280.00 0.00
  L 1280.00 468.46
  L 1205.73 468.47
  C 1199.64 462.60 1193.88 462.60 1188.45 468.47
  C 1179.37 468.41 1173.55 468.47 1171.00 468.66
  C 1122.93 472.22 1087.74 512.07 1089.51 560.14
  L 1089.28 562.95
  C 1089.25 563.28 1089.10 563.58 1088.86 563.79
  C 1087.07 565.34 1086.01 566.63 1085.68 567.68
  C 1084.11 572.57 1085.36 576.99 1089.43 580.96
  L 1089.58 640.00
  L 0.00 640.00
  L 0.00 223.99
  L 72.58 223.99
  C 72.98 223.94 73.80 224.12 75.04 224.55
  C 75.36 224.65 75.63 224.85 75.83 225.12
  C 77.09 226.79 78.82 227.60 81.01 227.55
  C 85.54 227.44 88.59 227.65 91.11 224.13
  C 98.72 224.02 106.96 224.25 113.93 223.35
  C 136.14 220.48 154.48 210.76 168.95 194.20
  C 183.85 177.17 191.04 156.62 190.51 132.55
  L 190.79 129.46
  C 190.82 129.15 190.98 128.86 191.22 128.66
  C 196.38 124.41 196.38 118.07 191.66 113.33
  C 191.32 112.99 191.10 112.56 191.03 112.09
  L 190.54 108.82
  L 190.45 0.00
  L 1280.00 0.00
  Z
  M 605.01 290.65
  C 599.26 291.94 593.29 292.76 587.10 293.11
  C 586.78 293.13 586.52 292.86 586.55 292.54
  L 587.67 280.11
  C 587.69 279.84 587.37 279.70 587.19 279.90
  C 572.19 296.78 548.42 309.96 525.24 303.20
  C 517.17 300.84 510.33 296.70 504.73 290.79
  C 495.95 281.52 491.58 268.26 493.53 255.60
  C 496.00 239.55 506.22 226.87 521.38 220.90
  C 526.19 219.00 532.23 217.91 539.51 217.62
  C 539.82 217.61 540.01 217.29 539.88 217.02
  C 538.71 214.58 537.22 211.50 536.55 208.74
  C 533.72 197.11 535.81 187.03 542.81 178.50
  C 552.79 166.35 569.27 165.04 582.59 171.89
  C 584.76 173.00 586.63 174.36 588.20 175.97
  C 588.42 176.19 588.79 176.10 588.89 175.81
  C 594.49 158.90 601.56 144.90 616.49 134.83
  C 630.56 125.34 645.63 121.71 661.71 123.96
  C 673.91 125.66 685.72 130.85 694.75 138.84
  C 710.28 152.57 717.87 170.12 717.54 191.49
  C 717.54 191.65 717.42 191.80 717.25 191.84
  C 688.16 198.34 662.78 212.14 638.79 231.07
  C 631.34 236.95 622.81 244.41 613.21 253.44
  C 612.84 253.79 612.26 253.80 611.87 253.46
  L 603.64 246.17
  C 603.45 246.00 603.14 246.10 603.08 246.35
  L 594.59 285.22
  C 594.55 285.39 594.71 285.54 594.88 285.50
  L 634.83 276.30
  C 635.14 276.23 635.24 275.84 635.00 275.63
  L 626.81 268.38
  C 626.62 268.21 626.62 267.91 626.81 267.74
  C 635.30 259.92 642.71 253.45 649.06 248.34
  C 656.55 242.30 665.19 236.32 674.99 230.41
  C 684.72 224.53 693.57 220.16 701.54 217.29
  C 715.27 212.36 729.00 209.11 743.00 209.32
  C 751.13 209.44 758.95 211.51 766.46 215.54
  C 785.15 225.57 794.00 246.10 790.46 266.72
  C 787.48 284.05 774.65 297.46 757.77 303.00
  C 753.90 304.27 748.50 304.89 741.59 304.88
  C 730.49 304.85 724.84 304.83 724.65 304.82
  C 724.25 304.80 723.87 304.97 723.63 305.28
  C 717.06 313.64 709.03 319.28 699.98 324.12
  C 699.80 324.22 699.87 324.49 700.08 324.49
  C 718.81 324.44 730.79 324.45 736.01 324.50
  C 747.33 324.62 755.61 324.07 760.84 322.84
  C 790.35 315.92 812.41 288.43 811.92 257.91
  C 811.79 249.64 810.54 242.10 808.18 235.29
  C 801.47 215.92 788.53 202.19 769.37 194.12
  C 759.52 189.97 749.41 188.30 739.04 189.12
  C 738.79 189.14 738.58 188.94 738.57 188.69
  C 738.35 179.88 737.24 170.61 734.37 161.95
  C 721.84 124.10 684.76 98.52 644.56 102.86
  C 618.97 105.63 598.34 117.82 582.67 139.44
  C 582.22 140.05 580.58 142.68 577.74 147.32
  C 577.58 147.57 577.29 147.71 576.99 147.66
  C 562.71 145.31 550.11 147.63 539.20 154.60
  C 523.56 164.59 514.15 182.12 514.82 200.54
  C 514.85 201.22 514.44 201.84 513.80 202.08
  C 492.46 210.25 476.54 229.69 473.22 252.34
  C 470.02 274.21 478.60 296.08 495.69 310.05
  C 516.79 327.31 544.89 328.51 569.28 317.39
  C 582.79 311.23 594.44 301.38 605.09 290.80
  C 605.15 290.74 605.10 290.63 605.01 290.65
  Z
  M 636.28 167.32
  C 636.28 167.52 636.28 167.50 636.18 167.60
  C 632.11 171.77 627.09 176.70 621.13 182.39
  C 617.61 185.74 620.79 188.32 623.31 190.50
  C 624.95 191.92 626.32 191.72 627.77 190.25
  C 632.45 185.51 638.62 179.35 646.27 171.77
  C 647.28 170.77 649.02 168.71 649.03 167.33
  C 649.03 165.96 647.29 163.89 646.28 162.89
  C 638.65 155.29 632.50 149.11 627.83 144.36
  C 626.39 142.89 625.02 142.68 623.37 144.10
  C 620.85 146.27 617.66 148.84 621.17 152.20
  C 627.12 157.91 632.12 162.85 636.18 167.03
  C 636.28 167.13 636.29 167.12 636.28 167.32
  Z
  M 701.32 186.78
  C 701.32 183.86 698.96 181.50 696.04 181.50
  C 693.12 181.50 690.76 183.86 690.76 186.78
  C 690.76 189.70 693.12 192.06 696.04 192.06
  C 698.96 192.06 701.32 189.70 701.32 186.78
  Z
  M 665.2056 186.3620
  C 665.17 183.78 663.05 181.71 660.4688 181.7396
  L 653.7893 181.8212
  C 651.20 181.85 649.14 183.97 649.1668 186.5580
  L 649.1744 187.1780
  C 649.21 189.76 651.33 191.83 653.9112 191.8004
  L 660.5907 191.7188
  C 663.18 191.69 665.24 189.57 665.2132 186.9820
  L 665.2056 186.3620
  Z
  M 683.5971 186.3678
  C 683.58 183.85 681.52 181.82 679.0054 181.8398
  L 676.0455 181.8605
  C 673.53 181.88 671.50 183.93 671.5174 186.4522
  L 671.5229 187.2322
  C 671.54 189.75 673.60 191.78 676.1146 191.7602
  L 679.0745 191.7395
  C 681.59 191.72 683.62 189.67 683.6026 187.1478
  L 683.5971 186.3678
  Z
  M 643.67 216.79
  L 613.07 196.85
  C 612.80 196.68 612.44 196.87 612.44 197.19
  L 612.44 206.82
  C 612.44 207.15 612.19 207.43 611.86 207.46
  C 597.55 208.67 585.49 213.27 575.68 221.24
  C 555.61 237.54 548.65 266.57 561.49 289.93
  C 561.69 290.28 562.15 290.38 562.47 290.14
  L 577.12 279.22
  C 577.44 278.98 577.57 278.56 577.43 278.18
  C 568.00 252.55 585.48 229.19 611.64 227.31
  C 612.03 227.28 612.36 227.59 612.36 227.98
  L 612.36 238.93
  C 612.36 239.24 612.71 239.42 612.96 239.24
  L 643.68 217.16
  C 643.81 217.07 643.80 216.88 643.67 216.79
  Z
  M 672.08 334.56
  L 672.08 323.83
  C 672.08 323.35 672.45 322.95 672.93 322.91
  C 715.94 319.70 744.31 275.03 721.56 235.89
  C 718.65 230.87 715.20 226.63 711.22 223.17
  C 710.88 222.88 710.42 222.80 710.01 222.97
  L 690.06 230.92
  C 689.65 231.08 689.61 231.66 690.00 231.87
  C 714.78 245.53 716.82 279.24 693.55 295.57
  C 687.36 299.92 680.38 302.36 672.59 302.90
  C 672.34 302.92 672.12 302.72 672.12 302.47
  L 672.12 291.07
  C 672.12 290.86 671.88 290.74 671.71 290.87
  L 641.52 313.36
  C 641.16 313.63 641.17 314.17 641.54 314.42
  L 671.70 334.76
  C 671.86 334.87 672.08 334.76 672.08 334.56
  Z
  M 573.48 324.45
  C 588.71 325.40 603.28 322.95 617.18 317.10
  C 638.52 308.11 656.27 293.66 671.90 277.03
  C 672.12 276.80 672.48 276.78 672.73 276.99
  L 680.91 284.23
  C 681.05 284.36 681.27 284.28 681.31 284.10
  L 688.86 243.90
  C 688.90 243.71 688.72 243.55 688.53 243.60
  L 648.95 255.45
  C 648.82 255.49 648.79 255.66 648.89 255.75
  L 657.17 263.09
  C 657.51 263.39 657.53 263.91 657.21 264.24
  C 642.50 279.26 626.59 292.38 607.45 300.35
  C 606.95 300.55 606.50 300.85 606.12 301.22
  C 596.41 310.47 585.41 318.95 573.43 324.18
  C 573.29 324.24 573.33 324.44 573.48 324.45
  Z
  M 647.81 411.11
  C 647.49 410.41 647.33 409.63 647.33 408.76
  C 647.34 402.35 647.33 385.61 647.29 358.54
  C 647.28 350.88 639.63 350.85 634.02 352.05
  C 630.43 352.83 629.71 355.92 629.70 359.25
  C 629.67 375.12 629.67 391.62 629.72 408.75
  C 629.74 417.18 630.53 426.87 641.14 428.34
  C 644.41 428.79 654.49 430.12 655.86 426.84
  C 657.35 423.27 658.17 415.46 653.93 412.41
  C 653.72 412.25 653.45 412.17 653.18 412.17
  L 649.47 412.17
  C 648.76 412.17 648.11 411.76 647.81 411.11
  Z
  M 816.63 380.91
  C 816.48 380.83 816.31 380.61 816.14 380.26
  C 815.99 379.96 815.67 379.64 815.16 379.30
  C 806.20 373.33 795.33 377.58 788.75 385.10
  C 783.41 391.21 781.24 398.24 782.25 406.19
  C 783.53 416.27 791.54 426.19 801.84 428.30
  C 807.89 429.54 813.02 428.24 817.22 424.40
  C 817.38 424.25 817.65 424.33 817.70 424.54
  C 819.04 429.77 826.63 429.38 830.60 428.32
  C 833.51 427.55 834.80 425.26 834.80 422.50
  C 834.85 404.41 834.85 384.28 834.81 362.13
  C 834.81 359.61 834.98 353.15 831.57 352.41
  C 828.89 351.82 825.96 351.67 822.79 351.95
  C 819.40 352.24 817.60 354.01 817.38 357.25
  C 817.24 359.30 817.21 367.05 817.29 380.49
  C 817.29 380.83 816.94 381.06 816.63 380.91
  Z
  M 529.36 411.04
  C 537.56 407.52 544.96 402.24 549.73 394.53
  C 555.04 385.96 553.99 374.69 548.47 366.58
  C 544.55 360.81 539.87 357.17 534.43 355.67
  C 522.91 352.49 511.87 355.61 504.57 365.40
  C 500.60 370.73 498.85 377.00 499.32 384.23
  C 499.42 385.69 499.83 386.93 500.56 387.96
  C 500.74 388.22 500.97 388.43 501.25 388.59
  C 504.28 390.35 507.82 390.86 511.85 390.11
  C 516.27 389.29 516.95 386.82 516.96 382.51
  C 516.96 379.32 518.15 376.59 520.54 374.33
  C 521.76 373.16 523.26 372.52 525.05 372.40
  C 532.49 371.90 537.40 377.99 534.36 385.12
  C 532.90 388.55 528.30 392.34 524.41 394.78
  C 513.89 401.39 507.92 404.04 502.47 410.93
  C 498.87 415.47 497.49 422.93 502.50 427.09
  C 504.41 428.68 506.65 429.44 509.23 429.37
  C 511.62 429.30 524.29 429.28 547.25 429.31
  C 550.19 429.32 554.60 428.57 555.50 425.30
  C 556.42 421.98 557.09 413.74 552.88 412.20
  C 551.60 411.73 549.97 411.49 547.99 411.48
  C 536.64 411.42 530.46 411.41 529.45 411.45
  C 529.21 411.46 529.14 411.13 529.36 411.04
  Z
  M 457.9900 354.8000
  C 437.98 354.80 421.75 371.68 421.7500 392.5000
  C 421.75 413.32 437.98 430.20 457.9900 430.2000
  C 478.00 430.20 494.23 413.32 494.2300 392.5000
  C 494.23 371.68 478.00 354.80 457.9900 354.8000
  Z
  M 560.29 392.38
  C 560.27 403.63 564.63 414.32 573.84 421.13
  C 588.27 431.82 602.97 432.81 617.94 424.11
  C 621.56 422.01 624.13 419.58 622.52 415.26
  C 621.31 412.01 619.19 409.29 616.16 407.11
  C 615.88 406.92 615.57 406.80 615.24 406.75
  C 613.88 406.58 612.81 406.70 612.04 407.11
  C 608.63 408.93 605.91 410.96 602.59 411.67
  C 598.96 412.44 595.42 412.27 591.97 411.16
  C 583.11 408.31 578.01 401.47 578.02 392.41
  C 578.04 383.36 583.17 376.53 592.03 373.71
  C 595.49 372.61 599.03 372.45 602.65 373.23
  C 605.97 373.95 608.68 375.99 612.09 377.82
  C 612.86 378.24 613.92 378.36 615.29 378.19
  C 615.61 378.15 615.93 378.03 616.21 377.84
  C 619.25 375.67 621.38 372.96 622.59 369.71
  C 624.22 365.39 621.65 362.95 618.04 360.84
  C 603.10 352.10 588.40 353.04 573.93 363.68
  C 564.70 370.47 560.31 381.14 560.29 392.38
  Z
  M 715.74 402.46
  C 715.74 387.31 703.46 375.03 688.31 375.03
  C 673.16 375.03 660.88 387.31 660.88 402.46
  C 660.88 417.61 673.16 429.89 688.31 429.89
  C 703.46 429.89 715.74 417.61 715.74 402.46
  Z
  M 757.55 423.53
  C 758.04 425.82 758.78 427.20 759.77 427.69
  C 763.85 429.68 774.77 430.44 774.83 422.75
  C 774.88 415.55 774.89 403.32 774.86 386.07
  C 774.85 382.40 775.18 377.80 770.52 376.79
  C 766.39 375.89 762.78 376.14 759.68 377.55
  C 759.37 377.69 759.09 377.90 758.89 378.18
  C 757.80 379.62 757.28 381.48 757.31 383.77
  C 757.36 386.37 757.33 392.69 757.24 402.72
  C 757.20 408.04 753.21 411.44 747.82 411.13
  C 740.20 410.69 739.76 404.58 739.84 397.68
  C 739.91 392.33 739.89 387.43 739.79 382.99
  C 739.62 375.98 732.77 375.76 727.52 376.57
  C 723.03 377.26 722.20 380.17 722.20 384.45
  C 722.20 390.46 722.21 396.48 722.22 402.50
  C 722.23 409.71 724.52 416.00 729.09 421.37
  C 735.46 428.85 747.18 431.80 755.14 425.08
  C 755.90 424.44 756.43 423.62 756.88 423.28
  C 757.13 423.09 757.48 423.23 757.55 423.53
  Z
  M 568.05 491.38
  C 568.03 502.61 572.39 513.30 581.59 520.12
  C 596.02 530.80 610.71 531.79 625.67 523.10
  C 629.29 521.00 631.86 518.57 630.25 514.25
  C 629.05 511.00 626.93 508.29 623.90 506.11
  C 623.62 505.92 623.31 505.79 622.98 505.75
  C 621.62 505.57 620.55 505.69 619.78 506.11
  C 616.37 507.92 613.65 509.95 610.33 510.66
  C 606.71 511.43 603.17 511.26 599.72 510.15
  C 590.87 507.30 585.76 500.46 585.78 491.41
  C 585.80 482.36 590.92 475.53 599.78 472.72
  C 603.24 471.61 606.78 471.46 610.40 472.24
  C 613.72 472.96 616.43 475.00 619.83 476.83
  C 620.60 477.25 621.67 477.37 623.03 477.20
  C 623.36 477.16 623.67 477.03 623.95 476.84
  C 626.99 474.68 629.12 471.97 630.34 468.72
  C 631.96 464.41 629.40 461.97 625.79 459.86
  C 610.86 451.11 596.16 452.05 581.70 462.68
  C 572.47 469.47 568.07 480.14 568.05 491.38
  Z
  M 655.19 512.80
  C 655.22 483.61 655.21 466.45 655.15 461.31
  C 655.08 454.38 647.98 454.38 642.87 455.09
  C 637.75 455.81 637.45 459.82 637.46 464.00
  C 637.46 465.47 637.46 483.72 637.47 518.75
  C 637.47 526.72 640.21 527.96 647.75 528.04
  C 648.58 528.05 660.41 528.02 683.24 527.97
  C 689.66 527.96 690.01 523.42 689.61 518.41
  C 689.34 515.06 687.45 513.37 683.92 513.32
  C 674.93 513.20 665.50 513.18 655.65 513.25
  C 655.40 513.26 655.19 513.05 655.19 512.80
  Z
  M 713.94 461.18
  C 713.94 457.69 711.11 454.86 707.62 454.86
  L 702.56 454.86
  C 699.07 454.86 696.24 457.69 696.24 461.18
  L 696.24 521.56
  C 696.24 525.05 699.07 527.88 702.56 527.88
  L 707.62 527.88
  C 711.11 527.88 713.94 525.05 713.94 521.56
  L 713.94 461.18
  Z"
/>
<path fill="#818181" d="
  M 190.54 108.82
  L 191.03 112.09
  C 191.10 112.56 191.32 112.99 191.66 113.33
  C 196.38 118.07 196.38 124.41 191.22 128.66
  C 190.98 128.86 190.82 129.15 190.79 129.46
  L 190.51 132.55
  C 177.41 132.11 164.32 132.16 151.23 132.70
  L 141.06 132.64
  L 140.98 129.70
  C 140.97 129.36 140.83 129.04 140.58 128.80
  C 134.97 123.51 134.93 118.19 140.45 112.85
  C 140.64 112.66 140.77 112.42 140.80 112.15
  L 141.10 109.63
  L 148.77 108.99
  C 149.04 108.97 149.24 108.73 149.21 108.46
  C 148.80 104.67 148.60 101.75 148.61 99.70
  C 148.83 55.77 148.51 36.19 148.82 2.75
  C 148.82 2.60 149.02 2.54 149.10 2.67
  C 150.78 5.46 151.61 8.68 151.60 12.33
  C 151.59 17.12 151.62 27.14 151.69 42.39
  C 151.78 64.11 151.41 87.70 151.82 108.63
  C 151.82 108.86 152.01 109.05 152.25 109.05
  C 163.38 108.87 174.62 108.94 185.97 109.27
  C 186.69 109.30 188.21 109.15 190.54 108.82
  Z
  M 189.1588 114.7956
  C 189.15 114.22 188.68 113.75 188.0997 113.7548
  L 159.4008 114.0053
  C 158.82 114.01 158.35 114.48 158.3600 115.0644
  L 158.3612 115.2044
  C 158.37 115.78 158.84 116.25 159.4203 116.2452
  L 188.1192 115.9947
  C 188.70 115.99 189.17 115.52 189.1600 114.9356
  L 189.1588 114.7956
  Z
  M 157.0305 115.0415
  C 157.04 114.47 156.58 114.01 156.0095 114.0025
  L 153.1497 113.9776
  C 152.58 113.97 152.12 114.43 152.1107 114.9985
  L 152.1095 115.1385
  C 152.10 115.71 152.56 116.17 153.1305 116.1775
  L 155.9903 116.2024
  C 156.56 116.21 157.02 115.75 157.0293 115.1815
  L 157.0305 115.0415
  Z"
/>
<path fill="#fefefe" d="
  M 605.01 290.65
  C 605.10 290.63 605.15 290.74 605.09 290.80
  C 594.44 301.38 582.79 311.23 569.28 317.39
  C 544.89 328.51 516.79 327.31 495.69 310.05
  C 478.60 296.08 470.02 274.21 473.22 252.34
  C 476.54 229.69 492.46 210.25 513.80 202.08
  C 514.44 201.84 514.85 201.22 514.82 200.54
  C 514.15 182.12 523.56 164.59 539.20 154.60
  C 550.11 147.63 562.71 145.31 576.99 147.66
  C 577.29 147.71 577.58 147.57 577.74 147.32
  C 580.58 142.68 582.22 140.05 582.67 139.44
  C 598.34 117.82 618.97 105.63 644.56 102.86
  C 684.76 98.52 721.84 124.10 734.37 161.95
  C 737.24 170.61 738.35 179.88 738.57 188.69
  C 738.58 188.94 738.79 189.14 739.04 189.12
  C 749.41 188.30 759.52 189.97 769.37 194.12
  C 788.53 202.19 801.47 215.92 808.18 235.29
  C 810.54 242.10 811.79 249.64 811.92 257.91
  C 812.41 288.43 790.35 315.92 760.84 322.84
  C 755.61 324.07 747.33 324.62 736.01 324.50
  C 730.79 324.45 718.81 324.44 700.08 324.49
  C 699.87 324.49 699.80 324.22 699.98 324.12
  C 709.03 319.28 717.06 313.64 723.63 305.28
  C 723.87 304.97 724.25 304.80 724.65 304.82
  C 724.84 304.83 730.49 304.85 741.59 304.88
  C 748.50 304.89 753.90 304.27 757.77 303.00
  C 774.65 297.46 787.48 284.05 790.46 266.72
  C 794.00 246.10 785.15 225.57 766.46 215.54
  C 758.95 211.51 751.13 209.44 743.00 209.32
  C 729.00 209.11 715.27 212.36 701.54 217.29
  C 693.57 220.16 684.72 224.53 674.99 230.41
  C 665.19 236.32 656.55 242.30 649.06 248.34
  C 642.71 253.45 635.30 259.92 626.81 267.74
  C 626.62 267.91 626.62 268.21 626.81 268.38
  L 635.00 275.63
  C 635.24 275.84 635.14 276.23 634.83 276.30
  L 594.88 285.50
  C 594.71 285.54 594.55 285.39 594.59 285.22
  L 603.08 246.35
  C 603.14 246.10 603.45 246.00 603.64 246.17
  L 611.87 253.46
  C 612.26 253.80 612.84 253.79 613.21 253.44
  C 622.81 244.41 631.34 236.95 638.79 231.07
  C 662.78 212.14 688.16 198.34 717.25 191.84
  C 717.42 191.80 717.54 191.65 717.54 191.49
  C 717.87 170.12 710.28 152.57 694.75 138.84
  C 685.72 130.85 673.91 125.66 661.71 123.96
  C 645.63 121.71 630.56 125.34 616.49 134.83
  C 601.56 144.90 594.49 158.90 588.89 175.81
  C 588.79 176.10 588.42 176.19 588.20 175.97
  C 586.63 174.36 584.76 173.00 582.59 171.89
  C 569.27 165.04 552.79 166.35 542.81 178.50
  C 535.81 187.03 533.72 197.11 536.55 208.74
  C 537.22 211.50 538.71 214.58 539.88 217.02
  C 540.01 217.29 539.82 217.61 539.51 217.62
  C 532.23 217.91 526.19 219.00 521.38 220.90
  C 506.22 226.87 496.00 239.55 493.53 255.60
  C 491.58 268.26 495.95 281.52 504.73 290.79
  C 510.33 296.70 517.17 300.84 525.24 303.20
  C 548.42 309.96 572.19 296.78 587.19 279.90
  C 587.37 279.70 587.69 279.84 587.67 280.11
  L 586.55 292.54
  C 586.52 292.86 586.78 293.13 587.10 293.11
  C 593.29 292.76 599.26 291.94 605.01 290.65
  Z"
/>
<rect fill="#c0c0c0" x="-15.40" y="-1.12" transform="translate(173.76,115.00) rotate(-0.5)" width="30.80" height="2.24" rx="1.05"/>
<rect fill="#c0c0c0" x="-2.46" y="-1.10" transform="translate(154.57,115.09) rotate(0.5)" width="4.92" height="2.20" rx="1.03"/>
<path fill="#c0c0c0" d="
  M 190.51 132.55
  C 191.04 156.62 183.85 177.17 168.95 194.20
  C 154.48 210.76 136.14 220.48 113.93 223.35
  C 106.96 224.25 98.72 224.02 91.11 224.13
  C 92.14 222.32 92.63 220.03 92.58 217.25
  C 92.45 209.96 92.45 197.96 92.59 181.23
  C 107.14 181.21 120.35 181.56 131.07 174.58
  C 145.68 165.06 152.40 151.10 151.23 132.70
  C 164.32 132.16 177.41 132.11 190.51 132.55
  Z"
/>
<path fill="#c0c0c0" d="
  M 151.23 132.70
  C 152.40 151.10 145.68 165.06 131.07 174.58
  C 120.35 181.56 107.14 181.21 92.59 181.23
  C 92.85 178.09 92.00 176.34 91.14 173.75
  C 103.88 173.84 113.92 174.27 124.07 167.31
  C 135.87 159.21 141.53 147.65 141.06 132.64
  L 151.23 132.70
  Z"
/>
<path fill="#fefefe" d="
  M 649.03 167.33
  C 649.02 168.71 647.28 170.77 646.27 171.77
  C 638.62 179.35 632.45 185.51 627.77 190.25
  C 626.32 191.72 624.95 191.92 623.31 190.50
  C 620.79 188.32 617.61 185.74 621.13 182.39
  C 627.09 176.70 632.11 171.77 636.18 167.60
  C 636.28 167.50 636.28 167.52 636.28 167.32
  C 636.29 167.12 636.28 167.13 636.18 167.03
  C 632.12 162.85 627.12 157.91 621.17 152.20
  C 617.66 148.84 620.85 146.27 623.37 144.10
  C 625.02 142.68 626.39 142.89 627.83 144.36
  C 632.50 149.11 638.65 155.29 646.28 162.89
  C 647.29 163.89 649.03 165.96 649.03 167.33
  Z"
/>
<path fill="#818181" d="
  M 91.14 173.75
  C 92.00 176.34 92.85 178.09 92.59 181.23
  C 92.45 197.96 92.45 209.96 92.58 217.25
  C 92.63 220.03 92.14 222.32 91.11 224.13
  C 88.59 227.65 85.54 227.44 81.01 227.55
  C 78.82 227.60 77.09 226.79 75.83 225.12
  C 75.63 224.85 75.36 224.65 75.04 224.55
  C 73.80 224.12 72.98 223.94 72.58 223.99
  L 72.42 183.97
  C 72.42 183.66 72.38 183.35 72.29 183.04
  C 71.81 181.29 71.58 180.11 71.60 179.52
  C 71.70 176.92 71.58 175.01 71.25 173.78
  L 74.52 173.65
  C 74.84 173.64 75.14 173.51 75.37 173.30
  C 80.69 168.49 85.95 168.64 91.14 173.75
  Z
  M 89.8145 186.2190
  C 89.82 185.68 89.39 185.25 88.8530 185.2405
  L 88.7530 185.2397
  C 88.22 185.23 87.78 185.67 87.7746 186.2012
  L 87.7455 189.5410
  C 87.74 190.08 88.17 190.51 88.7070 190.5195
  L 88.8070 190.5203
  C 89.34 190.53 89.78 190.09 89.7854 189.5588
  L 89.8145 186.2190
  Z
  M 89.8542 192.4243
  C 89.85 191.81 89.35 191.32 88.7384 191.3201
  L 88.6984 191.3203
  C 88.09 191.32 87.59 191.82 87.5943 192.4361
  L 87.7458 221.3757
  C 87.75 221.99 88.25 222.48 88.8616 222.4799
  L 88.9016 222.4797
  C 89.51 222.48 90.01 221.98 90.0057 221.3639
  L 89.8542 192.4243
  Z"
/>
<path fill="#c0c0c0" d="
  M 71.25 173.78
  C 71.58 175.01 71.70 176.92 71.60 179.52
  C 71.58 180.11 71.81 181.29 72.29 183.04
  C 72.38 183.35 72.42 183.66 72.42 183.97
  L 72.58 223.99
  L 0.00 223.99
  L 0.00 173.77
  L 71.25 173.78
  Z"
/>
<circle fill="#fefefe" cx="696.04" cy="186.78" r="5.28"/>
<rect fill="#fefefe" x="-8.02" y="-4.99" transform="translate(657.19,186.77) rotate(-0.7)" width="16.04" height="9.98" rx="4.68"/>
<rect fill="#fefefe" x="-6.04" y="-4.95" transform="translate(677.56,186.80) rotate(-0.4)" width="12.08" height="9.90" rx="4.56"/>
<rect fill="#c0c0c0" x="-1.02" y="-2.64" transform="translate(88.78,187.88) rotate(0.5)" width="2.04" height="5.28" rx="0.97"/>
<rect fill="#c0c0c0" x="-1.13" y="-15.58" transform="translate(88.80,206.90) rotate(-0.3)" width="2.26" height="31.16" rx="1.11"/>
<path fill="#fefefe" d="
  M 643.67 216.79
  C 643.80 216.88 643.81 217.07 643.68 217.16
  L 612.96 239.24
  C 612.71 239.42 612.36 239.24 612.36 238.93
  L 612.36 227.98
  C 612.36 227.59 612.03 227.28 611.64 227.31
  C 585.48 229.19 568.00 252.55 577.43 278.18
  C 577.57 278.56 577.44 278.98 577.12 279.22
  L 562.47 290.14
  C 562.15 290.38 561.69 290.28 561.49 289.93
  C 548.65 266.57 555.61 237.54 575.68 221.24
  C 585.49 213.27 597.55 208.67 611.86 207.46
  C 612.19 207.43 612.44 207.15 612.44 206.82
  L 612.44 197.19
  C 612.44 196.87 612.80 196.68 613.07 196.85
  L 643.67 216.79
  Z"
/>
<path fill="#fefefe" d="
  M 672.08 334.56
  C 672.08 334.76 671.86 334.87 671.70 334.76
  L 641.54 314.42
  C 641.17 314.17 641.16 313.63 641.52 313.36
  L 671.71 290.87
  C 671.88 290.74 672.12 290.86 672.12 291.07
  L 672.12 302.47
  C 672.12 302.72 672.34 302.92 672.59 302.90
  C 680.38 302.36 687.36 299.92 693.55 295.57
  C 716.82 279.24 714.78 245.53 690.00 231.87
  C 689.61 231.66 689.65 231.08 690.06 230.92
  L 710.01 222.97
  C 710.42 222.80 710.88 222.88 711.22 223.17
  C 715.20 226.63 718.65 230.87 721.56 235.89
  C 744.31 275.03 715.94 319.70 672.93 322.91
  C 672.45 322.95 672.08 323.35 672.08 323.83
  L 672.08 334.56
  Z"
/>
<path fill="#fefefe" d="
  M 573.48 324.45
  C 573.33 324.44 573.29 324.24 573.43 324.18
  C 585.41 318.95 596.41 310.47 606.12 301.22
  C 606.50 300.85 606.95 300.55 607.45 300.35
  C 626.59 292.38 642.50 279.26 657.21 264.24
  C 657.53 263.91 657.51 263.39 657.17 263.09
  L 648.89 255.75
  C 648.79 255.66 648.82 255.49 648.95 255.45
  L 688.53 243.60
  C 688.72 243.55 688.90 243.71 688.86 243.90
  L 681.31 284.10
  C 681.27 284.28 681.05 284.36 680.91 284.23
  L 672.73 276.99
  C 672.48 276.78 672.12 276.80 671.90 277.03
  C 656.27 293.66 638.52 308.11 617.18 317.10
  C 603.28 322.95 588.71 325.40 573.48 324.45
  Z"
/>
<path fill="#fefefe" d="
  M 647.81 411.11
  C 648.11 411.76 648.76 412.17 649.47 412.17
  L 653.18 412.17
  C 653.45 412.17 653.72 412.25 653.93 412.41
  C 658.17 415.46 657.35 423.27 655.86 426.84
  C 654.49 430.12 644.41 428.79 641.14 428.34
  C 630.53 426.87 629.74 417.18 629.72 408.75
  C 629.67 391.62 629.67 375.12 629.70 359.25
  C 629.71 355.92 630.43 352.83 634.02 352.05
  C 639.63 350.85 647.28 350.88 647.29 358.54
  C 647.33 385.61 647.34 402.35 647.33 408.76
  C 647.33 409.63 647.49 410.41 647.81 411.11
  Z"
/>
<path fill="#fefefe" d="
  M 817.29 380.49
  C 817.21 367.05 817.24 359.30 817.38 357.25
  C 817.60 354.01 819.40 352.24 822.79 351.95
  C 825.96 351.67 828.89 351.82 831.57 352.41
  C 834.98 353.15 834.81 359.61 834.81 362.13
  C 834.85 384.28 834.85 404.41 834.80 422.50
  C 834.80 425.26 833.51 427.55 830.60 428.32
  C 826.63 429.38 819.04 429.77 817.70 424.54
  C 817.65 424.33 817.38 424.25 817.22 424.40
  C 813.02 428.24 807.89 429.54 801.84 428.30
  C 791.54 426.19 783.53 416.27 782.25 406.19
  C 781.24 398.24 783.41 391.21 788.75 385.10
  C 795.33 377.58 806.20 373.33 815.16 379.30
  C 815.67 379.64 815.99 379.96 816.14 380.26
  C 816.31 380.61 816.48 380.83 816.63 380.91
  C 816.94 381.06 817.29 380.83 817.29 380.49
  Z
  M 816.86 402.74
  C 816.86 398.00 813.01 394.15 808.27 394.15
  C 803.53 394.15 799.68 398.00 799.68 402.74
  C 799.68 407.48 803.53 411.33 808.27 411.33
  C 813.01 411.33 816.86 407.48 816.86 402.74
  Z"
/>
<path fill="#fefefe" d="
  M 529.36 411.04
  C 529.14 411.13 529.21 411.46 529.45 411.45
  C 530.46 411.41 536.64 411.42 547.99 411.48
  C 549.97 411.49 551.60 411.73 552.88 412.20
  C 557.09 413.74 556.42 421.98 555.50 425.30
  C 554.60 428.57 550.19 429.32 547.25 429.31
  C 524.29 429.28 511.62 429.30 509.23 429.37
  C 506.65 429.44 504.41 428.68 502.50 427.09
  C 497.49 422.93 498.87 415.47 502.47 410.93
  C 507.92 404.04 513.89 401.39 524.41 394.78
  C 528.30 392.34 532.90 388.55 534.36 385.12
  C 537.40 377.99 532.49 371.90 525.05 372.40
  C 523.26 372.52 521.76 373.16 520.54 374.33
  C 518.15 376.59 516.96 379.32 516.96 382.51
  C 516.95 386.82 516.27 389.29 511.85 390.11
  C 507.82 390.86 504.28 390.35 501.25 388.59
  C 500.97 388.43 500.74 388.22 500.56 387.96
  C 499.83 386.93 499.42 385.69 499.32 384.23
  C 498.85 377.00 500.60 370.73 504.57 365.40
  C 511.87 355.61 522.91 352.49 534.43 355.67
  C 539.87 357.17 544.55 360.81 548.47 366.58
  C 553.99 374.69 555.04 385.96 549.73 394.53
  C 544.96 402.24 537.56 407.52 529.36 411.04
  Z"
/>
<path fill="#fefefe" d="
  M 457.9900 354.8000
  C 478.00 354.80 494.23 371.68 494.2300 392.5000
  C 494.23 413.32 478.00 430.20 457.9900 430.2000
  C 437.98 430.20 421.75 413.32 421.7500 392.5000
  C 421.75 371.68 437.98 354.80 457.9900 354.8000
  Z
  M 457.9553 372.6100
  C 447.72 372.63 439.43 381.54 439.4500 392.5224
  C 439.47 403.50 447.79 412.39 458.0247 412.3700
  C 468.26 412.35 476.55 403.44 476.5300 392.4576
  C 476.51 381.48 468.19 372.59 457.9553 372.6100
  Z"
/>
<path fill="#fefefe" d="
  M 578.02 392.41
  C 578.01 401.47 583.11 408.31 591.97 411.16
  C 595.42 412.27 598.96 412.44 602.59 411.67
  C 605.91 410.96 608.63 408.93 612.04 407.11
  C 612.81 406.70 613.88 406.58 615.24 406.75
  C 615.57 406.80 615.88 406.92 616.16 407.11
  C 619.19 409.29 621.31 412.01 622.52 415.26
  C 624.13 419.58 621.56 422.01 617.94 424.11
  C 602.97 432.81 588.27 431.82 573.84 421.13
  C 564.63 414.32 560.27 403.63 560.29 392.38
  C 560.31 381.14 564.70 370.47 573.93 363.68
  C 588.40 353.04 603.10 352.10 618.04 360.84
  C 621.65 362.95 624.22 365.39 622.59 369.71
  C 621.38 372.96 619.25 375.67 616.21 377.84
  C 615.93 378.03 615.61 378.15 615.29 378.19
  C 613.92 378.36 612.86 378.24 612.09 377.82
  C 608.68 375.99 605.97 373.95 602.65 373.23
  C 599.03 372.45 595.49 372.61 592.03 373.71
  C 583.17 376.53 578.04 383.36 578.02 392.41
  Z"
/>
<ellipse fill="#1e3968" cx="0.00" cy="0.00" transform="translate(457.99,392.49) rotate(-90.1)" rx="19.88" ry="18.54"/>
<path fill="#fefefe" d="
  M 715.74 402.46
  C 715.74 417.61 703.46 429.89 688.31 429.89
  C 673.16 429.89 660.88 417.61 660.88 402.46
  C 660.88 387.31 673.16 375.03 688.31 375.03
  C 703.46 375.03 715.74 387.31 715.74 402.46
  Z
  M 697.9591 400.3241
  C 696.82 395.15 691.57 391.91 686.2307 393.0837
  C 680.89 394.26 677.48 399.40 678.6209 404.5759
  C 679.76 409.75 685.01 412.99 690.3493 411.8163
  C 695.69 410.64 699.10 405.50 697.9591 400.3241
  Z"
/>
<path fill="#fefefe" d="
  M 756.88 423.28
  C 756.43 423.62 755.90 424.44 755.14 425.08
  C 747.18 431.80 735.46 428.85 729.09 421.37
  C 724.52 416.00 722.23 409.71 722.22 402.50
  C 722.21 396.48 722.20 390.46 722.20 384.45
  C 722.20 380.17 723.03 377.26 727.52 376.57
  C 732.77 375.76 739.62 375.98 739.79 382.99
  C 739.89 387.43 739.91 392.33 739.84 397.68
  C 739.76 404.58 740.20 410.69 747.82 411.13
  C 753.21 411.44 757.20 408.04 757.24 402.72
  C 757.33 392.69 757.36 386.37 757.31 383.77
  C 757.28 381.48 757.80 379.62 758.89 378.18
  C 759.09 377.90 759.37 377.69 759.68 377.55
  C 762.78 376.14 766.39 375.89 770.52 376.79
  C 775.18 377.80 774.85 382.40 774.86 386.07
  C 774.89 403.32 774.88 415.55 774.83 422.75
  C 774.77 430.44 763.85 429.68 759.77 427.69
  C 758.78 427.20 758.04 425.82 757.55 423.53
  C 757.48 423.23 757.13 423.09 756.88 423.28
  Z"
/>
<ellipse fill="#1e3968" cx="0.00" cy="0.00" transform="translate(688.29,402.45) rotate(-12.4)" rx="9.90" ry="9.59"/>
<circle fill="#1e3968" cx="808.27" cy="402.74" r="8.59"/>
<path fill="#07b1e8" d="
  M 568.05 491.38
  C 568.07 480.14 572.47 469.47 581.70 462.68
  C 596.16 452.05 610.86 451.11 625.79 459.86
  C 629.40 461.97 631.96 464.41 630.34 468.72
  C 629.12 471.97 626.99 474.68 623.95 476.84
  C 623.67 477.03 623.36 477.16 623.03 477.20
  C 621.67 477.37 620.60 477.25 619.83 476.83
  C 616.43 475.00 613.72 472.96 610.40 472.24
  C 606.78 471.46 603.24 471.61 599.78 472.72
  C 590.92 475.53 585.80 482.36 585.78 491.41
  C 585.76 500.46 590.87 507.30 599.72 510.15
  C 603.17 511.26 606.71 511.43 610.33 510.66
  C 613.65 509.95 616.37 507.92 619.78 506.11
  C 620.55 505.69 621.62 505.57 622.98 505.75
  C 623.31 505.79 623.62 505.92 623.90 506.11
  C 626.93 508.29 629.05 511.00 630.25 514.25
  C 631.86 518.57 629.29 521.00 625.67 523.10
  C 610.71 531.79 596.02 530.80 581.59 520.12
  C 572.39 513.30 568.03 502.61 568.05 491.38
  Z"
/>
<path fill="#07b1e8" d="
  M 655.19 512.80
  C 655.19 513.05 655.40 513.26 655.65 513.25
  C 665.50 513.18 674.93 513.20 683.92 513.32
  C 687.45 513.37 689.34 515.06 689.61 518.41
  C 690.01 523.42 689.66 527.96 683.24 527.97
  C 660.41 528.02 648.58 528.05 647.75 528.04
  C 640.21 527.96 637.47 526.72 637.47 518.75
  C 637.46 483.72 637.46 465.47 637.46 464.00
  C 637.45 459.82 637.75 455.81 642.87 455.09
  C 647.98 454.38 655.08 454.38 655.15 461.31
  C 655.21 466.45 655.22 483.61 655.19 512.80
  Z"
/>
<rect fill="#07b1e8" x="696.24" y="454.86" width="17.70" height="73.02" rx="6.32"/>
<path fill="#818181" d="
  M 1205.73 468.47
  L 1206.53 471.64
  C 1206.72 472.38 1206.82 473.15 1206.83 473.91
  C 1206.97 487.93 1206.96 498.88 1206.79 506.76
  C 1206.74 509.23 1207.14 511.13 1208.01 512.46
  C 1208.15 512.67 1208.19 512.93 1208.12 513.18
  C 1208.04 513.49 1207.85 513.73 1207.56 513.88
  C 1207.21 514.07 1206.93 514.40 1206.72 514.87
  C 1206.19 516.06 1205.72 517.34 1205.31 518.71
  C 1199.99 524.05 1194.25 524.02 1188.09 518.63
  C 1187.43 503.93 1187.22 489.01 1187.46 473.87
  C 1187.47 472.92 1187.58 472.01 1187.78 471.14
  C 1187.99 470.22 1188.22 469.33 1188.45 468.47
  C 1193.88 462.60 1199.64 462.60 1205.73 468.47
  Z
  M 1192.1238 471.0445
  C 1192.12 470.46 1191.64 469.99 1191.0583 469.9901
  L 1191.0183 469.9903
  C 1190.43 469.99 1189.96 470.47 1189.9638 471.0559
  L 1190.1162 500.1555
  C 1190.12 500.74 1190.60 501.21 1191.1817 501.2099
  L 1191.2217 501.2097
  C 1191.81 501.21 1192.28 500.73 1192.2762 500.1441
  L 1192.1238 471.0445
  Z
  M 1192.2721 503.2045
  C 1192.27 502.65 1191.82 502.21 1191.2669 502.2097
  L 1191.1469 502.2103
  C 1190.59 502.21 1190.15 502.66 1190.1521 503.2156
  L 1190.1679 506.2355
  C 1190.17 506.79 1190.62 507.23 1191.1731 507.2303
  L 1191.2931 507.2297
  C 1191.85 507.23 1192.29 506.78 1192.2879 506.2244
  L 1192.2721 503.2045
  Z"
/>
<path fill="#c0c0c0" d="
  M 1188.45 468.47
  C 1188.22 469.33 1187.99 470.22 1187.78 471.14
  C 1187.58 472.01 1187.47 472.92 1187.46 473.87
  C 1187.22 489.01 1187.43 503.93 1188.09 518.63
  C 1184.52 518.67 1180.92 518.75 1177.28 518.87
  C 1169.11 519.14 1162.41 520.61 1156.13 524.88
  C 1143.92 533.19 1138.19 544.92 1138.95 560.09
  L 1089.51 560.14
  C 1087.74 512.07 1122.93 472.22 1171.00 468.66
  C 1173.55 468.47 1179.37 468.41 1188.45 468.47
  Z"
/>
<path fill="#c0c0c0" d="
  M 1280.00 468.46
  L 1280.00 518.72
  L 1205.31 518.71
  C 1205.72 517.34 1206.19 516.06 1206.72 514.87
  C 1206.93 514.40 1207.21 514.07 1207.56 513.88
  C 1207.85 513.73 1208.04 513.49 1208.12 513.18
  C 1208.19 512.93 1208.15 512.67 1208.01 512.46
  C 1207.14 511.13 1206.74 509.23 1206.79 506.76
  C 1206.96 498.88 1206.97 487.93 1206.83 473.91
  C 1206.82 473.15 1206.72 472.38 1206.53 471.64
  L 1205.73 468.47
  L 1280.00 468.46
  Z"
/>
<rect fill="#c0c0c0" x="-1.08" y="-15.61" transform="translate(1191.12,485.60) rotate(-0.3)" width="2.16" height="31.22" rx="1.06"/>
<rect fill="#c0c0c0" x="-1.06" y="-2.51" transform="translate(1191.22,504.72) rotate(-0.3)" width="2.12" height="5.02" rx="1.00"/>
<path fill="#1e3968" d="
  M 1280.00 518.72
  L 1280.00 640.00
  L 1138.86 640.00
  L 1138.91 583.01
  L 1139.24 580.38
  C 1139.28 580.06 1139.42 579.77 1139.65 579.56
  C 1144.72 574.70 1145.13 568.38 1139.41 563.95
  C 1139.18 563.77 1139.05 563.50 1139.04 563.22
  L 1138.95 560.09
  C 1138.19 544.92 1143.92 533.19 1156.13 524.88
  C 1162.41 520.61 1169.11 519.14 1177.28 518.87
  C 1180.92 518.75 1184.52 518.67 1188.09 518.63
  C 1194.25 524.02 1199.99 524.05 1205.31 518.71
  L 1280.00 518.72
  Z"
/>
<path fill="#818181" d="
  M 1138.95 560.09
  L 1139.04 563.22
  C 1139.05 563.50 1139.18 563.77 1139.41 563.95
  C 1145.13 568.38 1144.72 574.70 1139.65 579.56
  C 1139.42 579.77 1139.28 580.06 1139.24 580.38
  L 1138.91 583.01
  C 1134.06 583.32 1130.80 583.37 1129.11 583.14
  C 1125.93 582.71 1122.74 582.33 1119.54 582.01
  C 1116.94 581.74 1113.74 581.65 1109.94 581.74
  C 1103.16 581.89 1096.32 581.63 1089.43 580.96
  C 1085.36 576.99 1084.11 572.57 1085.68 567.68
  C 1086.01 566.63 1087.07 565.34 1088.86 563.79
  C 1089.10 563.58 1089.25 563.28 1089.28 562.95
  L 1089.51 560.14
  L 1138.95 560.09
  Z
  M 1121.7188 577.4351
  C 1121.71 576.91 1121.29 576.49 1120.7605 576.4934
  L 1091.7417 576.7467
  C 1091.22 576.75 1090.80 577.18 1090.8000 577.7049
  L 1090.8012 577.8449
  C 1090.81 578.37 1091.23 578.79 1091.7595 578.7866
  L 1120.7783 578.5333
  C 1121.30 578.53 1121.72 578.10 1121.7200 577.5751
  L 1121.7188 577.4351
  Z
  M 1127.8692 577.4281
  C 1127.86 576.94 1127.46 576.54 1126.9684 576.5491
  L 1123.5286 576.5911
  C 1123.04 576.60 1122.64 577.00 1122.6496 577.4919
  L 1122.6508 577.5919
  C 1122.66 578.08 1123.06 578.48 1123.5516 578.4709
  L 1126.9914 578.4289
  C 1127.48 578.42 1127.88 578.02 1127.8704 577.5281
  L 1127.8692 577.4281
  Z"
/>
<rect fill="#c0c0c0" x="-15.46" y="-1.02" transform="translate(1106.26,577.64) rotate(-0.5)" width="30.92" height="2.04" rx="0.95"/>
<rect fill="#c0c0c0" x="-2.61" y="-0.94" transform="translate(1125.26,577.51) rotate(-0.7)" width="5.22" height="1.88" rx="0.89"/>
<path fill="#c0c0c0" d="
  M 1138.91 583.01
  L 1138.86 640.00
  L 1089.58 640.00
  L 1089.43 580.96
  C 1096.32 581.63 1103.16 581.89 1109.94 581.74
  C 1113.74 581.65 1116.94 581.74 1119.54 582.01
  C 1122.74 582.33 1125.93 582.71 1129.11 583.14
  C 1130.80 583.37 1134.06 583.32 1138.91 583.01
  Z"
/>
</svg>
